<?xml version="1.0" encoding="iso-8859-1"?>
<!-- Generator: Adobe Illustrator 19.0.0, SVG Export Plug-In . SVG Version: 6.00 Build 0)  -->
<svg version="1.1" id="Capa_1" xmlns="http://www.w3.org/2000/svg" xmlns:xlink="http://www.w3.org/1999/xlink" x="0px" y="0px"
	 viewBox="0 0 512.002 512.002" style="enable-background:new 0 0 512.002 512.002;" xml:space="preserve">
<path style="fill:#A5C8CD;" d="M475.171,269.649h-72.728c-5.249,0-9.505-4.256-9.505-9.505c0-5.25,4.256-9.505,9.505-9.505h72.728
	c5.249,0,9.505,4.256,9.505,9.505C484.677,265.393,480.42,269.649,475.171,269.649z"/>
<path style="fill:#C8E6EB;" d="M475.171,250.638h-72.728c-5.249,0-9.505-4.256-9.505-9.505s4.256-9.505,9.505-9.505h72.728
	c5.249,0,9.505,4.256,9.505,9.505S480.42,250.638,475.171,250.638z"/>
<path style="fill:#A5C8CD;" d="M475.171,231.626h-72.728c-5.249,0-9.505-4.256-9.505-9.505s4.256-9.505,9.505-9.505h72.728
	c5.249,0,9.505,4.256,9.505,9.505S480.42,231.626,475.171,231.626z"/>
<path style="fill:#C8E6EB;" d="M475.171,212.616h-72.728c-5.249,0-9.505-4.256-9.505-9.505s4.256-9.505,9.505-9.505h72.728
	c5.249,0,9.505,4.256,9.505,9.505S480.42,212.616,475.171,212.616z"/>
<path style="fill:#1B224A;" d="M135.514,175.63c-8.129-3.61-11.794-13.127-8.183-21.257l27.113-61.056l-57.201,5.517
	c-8.859,0.853-16.724-5.631-17.578-14.486c-0.854-8.854,5.631-16.724,14.485-17.578l84.666-8.166
	c5.699-0.547,11.263,1.969,14.612,6.614c3.349,4.646,3.978,10.72,1.654,15.954l-38.312,86.273
	C153.179,175.535,143.685,179.257,135.514,175.63z"/>
<path style="fill:#F5A287;" d="M94.149,66.773c-8.854,0.854-15.339,8.724-14.485,17.578c0.855,8.854,8.719,15.339,17.578,14.486
	L94.149,66.773z"/>
<path style="fill:#FFFFFF;" d="M94.101,66.78l3.301,32.041l10.525-1.015l-3.301-32.043l-10.477,1.01
	C94.133,66.775,94.117,66.778,94.101,66.78z"/>
<path style="fill:#6C9BAA;" d="M146.834,453.47c-5.785,0-10.473-4.689-10.473-10.473V334.361c0-5.784,4.689-10.473,10.473-10.473
	s10.473,4.689,10.473,10.473v108.638C157.307,448.782,152.618,453.47,146.834,453.47z"/>
<path style="fill:#B4D7DC;" d="M173.766,450.403l-11.739-11.738h-31.443l-11.739,11.738c-4.09,4.09-10.72,4.09-14.81,0
	c-4.09-4.09-4.09-10.72,0-14.81l14.806-14.806c1.964-1.964,4.628-3.067,7.405-3.067h40.119c2.777,0,5.442,1.104,7.405,3.067
	l14.806,14.806c4.09,4.09,4.09,10.72,0,14.81C184.486,454.493,177.856,454.494,173.766,450.403z"/>
<path style="fill:#592713;" d="M484.773,453.47c-5.785,0-10.473-4.689-10.473-10.473V278.431H306.743v164.568
	c0,5.784-4.689,10.473-10.473,10.473c-5.784,0-10.473-4.689-10.473-10.473V267.958c0-5.784,4.689-10.472,10.473-10.472h188.503
	c5.785,0,10.473,4.689,10.473,10.472v175.04C495.247,448.782,490.558,453.47,484.773,453.47z"/>
<path style="fill:#80391B;" d="M496.293,283.667H283.704c-8.675,0-15.709-7.033-15.709-15.709c0-8.675,7.033-15.709,15.709-15.709
	h212.589c8.675,0,15.709,7.033,15.709,15.709C512.002,276.634,504.968,283.667,496.293,283.667z"/>
<path style="fill:#414B82;" d="M146.313,344.348c-5.904,0-11.782-2.421-16.023-7.169c-7.9-8.846-7.135-22.421,1.71-30.322
	l100.193-89.495c4.556-4.07,10.63-6.006,16.697-5.325l102.857-2.604c11.787,1.32,20.27,11.945,18.949,23.732
	c-1.32,11.786-8.019,17.983-23.733,18.95l-93.318,3.674l-93.035,83.101C156.515,342.548,151.404,344.348,146.313,344.348z"/>
<path style="fill:#1B224A;" d="M125.491,328.233l73.081-80.841l-50.89-112.845l-66.426,27.804
	c-11.841,4.957-17.423,18.573-12.466,30.414L125.491,328.233z"/>
<path style="fill:#FF3C3C;" d="M214.496,344.868H88.733c-6.989,0-13.138-4.618-15.086-11.33l-48.54-167.246
	c-2.418-8.331,2.376-17.046,10.708-19.465c8.338-2.42,17.047,2.378,19.465,10.708l45.252,155.916h113.964
	c8.675,0,15.709,7.033,15.709,15.709S223.171,344.868,214.496,344.868z"/>
<path style="fill:#252D5C;" d="M95.46,212.564l-84.964-31.571c-4.479-1.664-7.988-5.231-9.578-9.737
	c-1.59-4.506-1.098-9.484,1.344-13.592l36.824-61.933c4.547-7.645,14.429-10.158,22.075-5.613
	c7.646,4.547,10.159,14.43,5.613,22.075L39.82,157.524l66.858,24.844c8.338,3.098,12.586,12.369,9.488,20.707
	C113.069,211.412,103.8,215.663,95.46,212.564z"/>
<path style="fill:#F5A287;" d="M66.775,112.194c4.546-7.645,2.033-17.529-5.613-22.075c-7.647-4.546-17.528-2.033-22.075,5.613
	L66.775,112.194z"/>
<polygon style="fill:#FFFFFF;" points="92.439,157.662 139.597,206.866 133.6,140.256 "/>
<path style="fill:#FF3C3C;" d="M136.677,174.428l-1.323-6.446c-0.311-1.515-1.147-2.87-2.361-3.827l-8.828-6.965l0.993-9.648
	c0.179-1.744-1.581-3.048-3.198-2.365l-14.347,6.066c-1.615,0.683-1.91,2.855-0.531,3.942l7.639,6.028l-1.149,11.154
	c-0.158,1.538,0.232,3.08,1.101,4.358l9.689,14.244l15.235,15.895L136.677,174.428z"/>
<path style="fill:#FFFFFF;" d="M33.928,104.408l27.898,16.108l4.948-8.321c0.059-0.099,0.103-0.203,0.16-0.304L39.051,95.791
	L33.928,104.408z"/>
<circle style="fill:#FFB69E;" cx="83.907" cy="105.528" r="37.267"/>
<g>
</g>
<g>
</g>
<g>
</g>
<g>
</g>
<g>
</g>
<g>
</g>
<g>
</g>
<g>
</g>
<g>
</g>
<g>
</g>
<g>
</g>
<g>
</g>
<g>
</g>
<g>
</g>
<g>
</g>
</svg>
